<mxfile host="65bd71144e">
    <diagram id="nfoU5zl-Lrdo-RMUOea-" name="Page-1">
        <mxGraphModel dx="1477" dy="478" grid="1" gridSize="10" guides="1" tooltips="1" connect="1" arrows="1" fold="1" page="1" pageScale="1" pageWidth="827" pageHeight="1169" math="0" shadow="0">
            <root>
                <mxCell id="0"/>
                <mxCell id="1" parent="0"/>
                <mxCell id="52Nn8JB1zDlZzFZ0hI1m-102" value="Switch" style="swimlane;fontStyle=1;align=center;verticalAlign=top;childLayout=stackLayout;horizontal=1;startSize=26;horizontalStack=0;resizeParent=1;resizeParentMax=0;resizeLast=0;collapsible=1;marginBottom=0;strokeWidth=1;" parent="1" vertex="1">
                    <mxGeometry x="-10" y="690" width="280" height="160" as="geometry"/>
                </mxCell>
                <mxCell id="52Nn8JB1zDlZzFZ0hI1m-103" value="- commands: { [id: string]: ICommand }&#10;- history: [number, string[]]" style="text;strokeColor=none;fillColor=none;align=left;verticalAlign=top;spacingLeft=4;spacingRight=4;overflow=hidden;rotatable=0;points=[[0,0.5],[1,0.5]];portConstraint=eastwest;" parent="52Nn8JB1zDlZzFZ0hI1m-102" vertex="1">
                    <mxGeometry y="26" width="280" height="44" as="geometry"/>
                </mxCell>
                <mxCell id="52Nn8JB1zDlZzFZ0hI1m-104" value="" style="line;strokeWidth=1;fillColor=none;align=left;verticalAlign=middle;spacingTop=-1;spacingLeft=3;spacingRight=3;rotatable=0;labelPosition=right;points=[];portConstraint=eastwest;" parent="52Nn8JB1zDlZzFZ0hI1m-102" vertex="1">
                    <mxGeometry y="70" width="280" height="8" as="geometry"/>
                </mxCell>
                <mxCell id="52Nn8JB1zDlZzFZ0hI1m-105" value="+ constructor()&#10;+ register(string, ICommand): void&#10;+ execute(string): void&#10;+ showHistory(): void&#10;+ replayLast(number): void" style="text;strokeColor=none;fillColor=none;align=left;verticalAlign=top;spacingLeft=4;spacingRight=4;overflow=hidden;rotatable=0;points=[[0,0.5],[1,0.5]];portConstraint=eastwest;" parent="52Nn8JB1zDlZzFZ0hI1m-102" vertex="1">
                    <mxGeometry y="78" width="280" height="82" as="geometry"/>
                </mxCell>
                <mxCell id="52Nn8JB1zDlZzFZ0hI1m-106" value="SwitchOnCommand" style="swimlane;fontStyle=1;align=center;verticalAlign=top;childLayout=stackLayout;horizontal=1;startSize=26;horizontalStack=0;resizeParent=1;resizeParentMax=0;resizeLast=0;collapsible=1;marginBottom=0;strokeWidth=1;" parent="1" vertex="1">
                    <mxGeometry x="320" y="580" width="160" height="110" as="geometry"/>
                </mxCell>
                <mxCell id="52Nn8JB1zDlZzFZ0hI1m-107" value="- receiver: Light" style="text;strokeColor=none;fillColor=none;align=left;verticalAlign=top;spacingLeft=4;spacingRight=4;overflow=hidden;rotatable=0;points=[[0,0.5],[1,0.5]];portConstraint=eastwest;" parent="52Nn8JB1zDlZzFZ0hI1m-106" vertex="1">
                    <mxGeometry y="26" width="160" height="26" as="geometry"/>
                </mxCell>
                <mxCell id="52Nn8JB1zDlZzFZ0hI1m-108" value="" style="line;strokeWidth=1;fillColor=none;align=left;verticalAlign=middle;spacingTop=-1;spacingLeft=3;spacingRight=3;rotatable=0;labelPosition=right;points=[];portConstraint=eastwest;" parent="52Nn8JB1zDlZzFZ0hI1m-106" vertex="1">
                    <mxGeometry y="52" width="160" height="8" as="geometry"/>
                </mxCell>
                <mxCell id="52Nn8JB1zDlZzFZ0hI1m-109" value="+ constructor(Light): void&#10;+ execute(): void" style="text;strokeColor=none;fillColor=none;align=left;verticalAlign=top;spacingLeft=4;spacingRight=4;overflow=hidden;rotatable=0;points=[[0,0.5],[1,0.5]];portConstraint=eastwest;" parent="52Nn8JB1zDlZzFZ0hI1m-106" vertex="1">
                    <mxGeometry y="60" width="160" height="50" as="geometry"/>
                </mxCell>
                <mxCell id="52Nn8JB1zDlZzFZ0hI1m-110" value="ISwitchCommand" style="swimlane;fontStyle=1;align=center;verticalAlign=top;childLayout=stackLayout;horizontal=1;startSize=26;horizontalStack=0;resizeParent=1;resizeParentMax=0;resizeLast=0;collapsible=1;marginBottom=0;strokeWidth=1;" parent="1" vertex="1">
                    <mxGeometry x="320" y="740" width="160" height="60" as="geometry"/>
                </mxCell>
                <mxCell id="52Nn8JB1zDlZzFZ0hI1m-112" value="" style="line;strokeWidth=1;fillColor=none;align=left;verticalAlign=middle;spacingTop=-1;spacingLeft=3;spacingRight=3;rotatable=0;labelPosition=right;points=[];portConstraint=eastwest;" parent="52Nn8JB1zDlZzFZ0hI1m-110" vertex="1">
                    <mxGeometry y="26" width="160" height="8" as="geometry"/>
                </mxCell>
                <mxCell id="52Nn8JB1zDlZzFZ0hI1m-113" value="+ execute(): void" style="text;strokeColor=none;fillColor=none;align=left;verticalAlign=top;spacingLeft=4;spacingRight=4;overflow=hidden;rotatable=0;points=[[0,0.5],[1,0.5]];portConstraint=eastwest;" parent="52Nn8JB1zDlZzFZ0hI1m-110" vertex="1">
                    <mxGeometry y="34" width="160" height="26" as="geometry"/>
                </mxCell>
                <mxCell id="52Nn8JB1zDlZzFZ0hI1m-114" value="SwitchOffCommand" style="swimlane;fontStyle=1;align=center;verticalAlign=top;childLayout=stackLayout;horizontal=1;startSize=26;horizontalStack=0;resizeParent=1;resizeParentMax=0;resizeLast=0;collapsible=1;marginBottom=0;strokeWidth=1;" parent="1" vertex="1">
                    <mxGeometry x="320" y="850" width="160" height="110" as="geometry"/>
                </mxCell>
                <mxCell id="52Nn8JB1zDlZzFZ0hI1m-115" value="- receiver: Light" style="text;strokeColor=none;fillColor=none;align=left;verticalAlign=top;spacingLeft=4;spacingRight=4;overflow=hidden;rotatable=0;points=[[0,0.5],[1,0.5]];portConstraint=eastwest;" parent="52Nn8JB1zDlZzFZ0hI1m-114" vertex="1">
                    <mxGeometry y="26" width="160" height="26" as="geometry"/>
                </mxCell>
                <mxCell id="52Nn8JB1zDlZzFZ0hI1m-116" value="" style="line;strokeWidth=1;fillColor=none;align=left;verticalAlign=middle;spacingTop=-1;spacingLeft=3;spacingRight=3;rotatable=0;labelPosition=right;points=[];portConstraint=eastwest;" parent="52Nn8JB1zDlZzFZ0hI1m-114" vertex="1">
                    <mxGeometry y="52" width="160" height="8" as="geometry"/>
                </mxCell>
                <mxCell id="52Nn8JB1zDlZzFZ0hI1m-117" value="+ constructor(Light): void&#10;+ execute(): void" style="text;strokeColor=none;fillColor=none;align=left;verticalAlign=top;spacingLeft=4;spacingRight=4;overflow=hidden;rotatable=0;points=[[0,0.5],[1,0.5]];portConstraint=eastwest;" parent="52Nn8JB1zDlZzFZ0hI1m-114" vertex="1">
                    <mxGeometry y="60" width="160" height="50" as="geometry"/>
                </mxCell>
                <mxCell id="52Nn8JB1zDlZzFZ0hI1m-118" value="Light" style="swimlane;fontStyle=1;align=center;verticalAlign=top;childLayout=stackLayout;horizontal=1;startSize=26;horizontalStack=0;resizeParent=1;resizeParentMax=0;resizeLast=0;collapsible=1;marginBottom=0;strokeWidth=1;" parent="1" vertex="1">
                    <mxGeometry x="560" y="730" width="160" height="80" as="geometry"/>
                </mxCell>
                <mxCell id="52Nn8JB1zDlZzFZ0hI1m-120" value="" style="line;strokeWidth=1;fillColor=none;align=left;verticalAlign=middle;spacingTop=-1;spacingLeft=3;spacingRight=3;rotatable=0;labelPosition=right;points=[];portConstraint=eastwest;" parent="52Nn8JB1zDlZzFZ0hI1m-118" vertex="1">
                    <mxGeometry y="26" width="160" height="8" as="geometry"/>
                </mxCell>
                <mxCell id="52Nn8JB1zDlZzFZ0hI1m-121" value="+ turnOn(): void&#10;+ turnOff(): void" style="text;strokeColor=none;fillColor=none;align=left;verticalAlign=top;spacingLeft=4;spacingRight=4;overflow=hidden;rotatable=0;points=[[0,0.5],[1,0.5]];portConstraint=eastwest;" parent="52Nn8JB1zDlZzFZ0hI1m-118" vertex="1">
                    <mxGeometry y="34" width="160" height="46" as="geometry"/>
                </mxCell>
                <mxCell id="52Nn8JB1zDlZzFZ0hI1m-122" value="Client Application" style="html=1;strokeWidth=1;" parent="1" vertex="1">
                    <mxGeometry x="320" y="1020" width="160" height="80" as="geometry"/>
                </mxCell>
                <mxCell id="52Nn8JB1zDlZzFZ0hI1m-123" value="" style="html=1;verticalAlign=bottom;startArrow=diamond;startFill=0;endArrow=open;startSize=12;endSize=10;exitX=1.001;exitY=-0.022;exitDx=0;exitDy=0;exitPerimeter=0;" parent="1" source="52Nn8JB1zDlZzFZ0hI1m-105" edge="1">
                    <mxGeometry width="80" relative="1" as="geometry">
                        <mxPoint x="268" y="850" as="sourcePoint"/>
                        <mxPoint x="320" y="766" as="targetPoint"/>
                    </mxGeometry>
                </mxCell>
                <mxCell id="52Nn8JB1zDlZzFZ0hI1m-125" value="" style="html=1;verticalAlign=bottom;startArrow=none;startFill=0;endArrow=block;startSize=12;endSize=10;exitX=0.506;exitY=1.04;exitDx=0;exitDy=0;exitPerimeter=0;entryX=0.5;entryY=0;entryDx=0;entryDy=0;endFill=0;dashed=1;" parent="1" source="52Nn8JB1zDlZzFZ0hI1m-109" target="52Nn8JB1zDlZzFZ0hI1m-110" edge="1">
                    <mxGeometry width="80" relative="1" as="geometry">
                        <mxPoint x="280" y="700" as="sourcePoint"/>
                        <mxPoint x="327" y="700" as="targetPoint"/>
                    </mxGeometry>
                </mxCell>
                <mxCell id="52Nn8JB1zDlZzFZ0hI1m-126" value="" style="html=1;verticalAlign=bottom;startArrow=none;startFill=0;endArrow=block;startSize=12;endSize=10;exitX=0.5;exitY=0;exitDx=0;exitDy=0;entryX=0.488;entryY=1;entryDx=0;entryDy=0;entryPerimeter=0;endFill=0;dashed=1;" parent="1" source="52Nn8JB1zDlZzFZ0hI1m-114" target="52Nn8JB1zDlZzFZ0hI1m-113" edge="1">
                    <mxGeometry width="80" relative="1" as="geometry">
                        <mxPoint x="290" y="710" as="sourcePoint"/>
                        <mxPoint x="337" y="710" as="targetPoint"/>
                    </mxGeometry>
                </mxCell>
                <mxCell id="52Nn8JB1zDlZzFZ0hI1m-127" value="" style="html=1;verticalAlign=bottom;startArrow=diamond;startFill=0;endArrow=open;startSize=12;endSize=10;entryX=0;entryY=0;entryDx=0;entryDy=0;endFill=0;" parent="1" target="52Nn8JB1zDlZzFZ0hI1m-118" edge="1">
                    <mxGeometry width="80" relative="1" as="geometry">
                        <mxPoint x="480" y="690" as="sourcePoint"/>
                        <mxPoint x="410" y="750" as="targetPoint"/>
                    </mxGeometry>
                </mxCell>
                <mxCell id="52Nn8JB1zDlZzFZ0hI1m-128" value="" style="html=1;verticalAlign=bottom;startArrow=diamond;startFill=0;endArrow=open;startSize=12;endSize=10;exitX=1;exitY=0;exitDx=0;exitDy=0;entryX=0.006;entryY=0.913;entryDx=0;entryDy=0;endFill=0;entryPerimeter=0;" parent="1" source="52Nn8JB1zDlZzFZ0hI1m-114" target="52Nn8JB1zDlZzFZ0hI1m-121" edge="1">
                    <mxGeometry width="80" relative="1" as="geometry">
                        <mxPoint x="492.0799999999999" y="703" as="sourcePoint"/>
                        <mxPoint x="570" y="740" as="targetPoint"/>
                    </mxGeometry>
                </mxCell>
                <mxCell id="52Nn8JB1zDlZzFZ0hI1m-129" value="" style="html=1;verticalAlign=bottom;startArrow=diamond;startFill=0;endArrow=open;startSize=12;endSize=10;entryX=0.482;entryY=1.049;entryDx=0;entryDy=0;exitX=0;exitY=0;exitDx=0;exitDy=0;entryPerimeter=0;" parent="1" source="52Nn8JB1zDlZzFZ0hI1m-122" target="52Nn8JB1zDlZzFZ0hI1m-105" edge="1">
                    <mxGeometry width="80" relative="1" as="geometry">
                        <mxPoint x="278" y="950" as="sourcePoint"/>
                        <mxPoint x="330" y="860" as="targetPoint"/>
                    </mxGeometry>
                </mxCell>
                <mxCell id="52Nn8JB1zDlZzFZ0hI1m-130" value="" style="html=1;verticalAlign=bottom;startArrow=diamond;startFill=0;endArrow=open;startSize=12;endSize=10;entryX=0.656;entryY=0.978;entryDx=0;entryDy=0;exitX=1;exitY=0;exitDx=0;exitDy=0;entryPerimeter=0;" parent="1" source="52Nn8JB1zDlZzFZ0hI1m-122" target="52Nn8JB1zDlZzFZ0hI1m-121" edge="1">
                    <mxGeometry width="80" relative="1" as="geometry">
                        <mxPoint x="288" y="870" as="sourcePoint"/>
                        <mxPoint x="340" y="870" as="targetPoint"/>
                    </mxGeometry>
                </mxCell>
            </root>
        </mxGraphModel>
    </diagram>
</mxfile>